<svg width="40" height="40" viewBox="0 0 40 40" fill="none" xmlns="http://www.w3.org/2000/svg">
<path d="M13.7261 20H11.2261C9.56907 20.002 7.98049 20.6611 6.80881 21.8327C5.63713 23.0044 4.97803 24.593 4.97607 26.25V31.25H7.47607V26.25C7.47717 25.2558 7.8726 24.3026 8.57563 23.5996C9.27865 22.8965 10.2318 22.5011 11.2261 22.5H13.7261V20Z" fill="#0E3465"/>
<path fill-rule="evenodd" clip-rule="evenodd" d="M25.0269 30.7324C28.4786 30.7324 31.2769 27.9342 31.2769 24.4824C31.2769 21.0306 28.4786 18.2324 25.0269 18.2324C21.5751 18.2324 18.7769 21.0306 18.7769 24.4824C18.7769 27.9342 21.5751 30.7324 25.0269 30.7324ZM25.0269 33.2324C29.8593 33.2324 33.7769 29.3149 33.7769 24.4824C33.7769 19.6499 29.8593 15.7324 25.0269 15.7324C20.1944 15.7324 16.2769 19.6499 16.2769 24.4824C16.2769 29.3149 20.1944 33.2324 25.0269 33.2324Z" fill="#0E3465"/>
<path fill-rule="evenodd" clip-rule="evenodd" d="M18.334 11.25C18.334 9.17893 16.6551 7.5 14.584 7.5C12.5129 7.5 10.834 9.17893 10.834 11.25C10.834 13.3211 12.5129 15 14.584 15C16.6551 15 18.334 13.3211 18.334 11.25ZM20.834 11.25C20.834 7.79822 18.0358 5 14.584 5C11.1322 5 8.33398 7.79822 8.33398 11.25C8.33398 14.7018 11.1322 17.5 14.584 17.5C18.0358 17.5 20.834 14.7018 20.834 11.25Z" fill="#0E3465"/>
<rect x="29.9634" y="31.1865" width="2.5" height="9.05284" transform="rotate(-45 29.9634 31.1865)" fill="#0E3465"/>
</svg>
