<svg width="40" height="40" viewBox="0 0 40 40" fill="none" xmlns="http://www.w3.org/2000/svg">
<mask id="mask0_2522_73948" style="mask-type:alpha" maskUnits="userSpaceOnUse" x="0" y="0" width="40" height="40">
<rect width="40" height="40" fill="#8699B2"/>
</mask>
<g mask="url(#mask0_2522_73948)">
<mask id="mask1_2522_73948" style="mask-type:alpha" maskUnits="userSpaceOnUse" x="3" y="3" width="34" height="34">
<rect x="3" y="3" width="34" height="34" fill="#8699B2"/>
</mask>
<g mask="url(#mask1_2522_73948)">
<path d="M3.28223 30.7317C3.28223 30.8663 3.28223 31.0009 3.41681 31.1355V31.2701C3.41681 31.2701 3.41681 31.2701 3.41681 31.4046C3.41681 31.5392 3.5514 31.6738 3.68599 31.6738C3.82058 31.8084 3.95517 31.8084 3.95517 31.943H4.08975C4.35893 32.0776 4.49352 32.0776 4.62811 32.0776H14.1839C14.7222 34.3656 16.8756 36.1152 19.4328 36.1152C21.99 36.1152 24.0088 34.3656 24.6817 32.0776H34.2375C35.045 32.0776 35.5833 31.5392 35.5833 30.7317C35.5833 30.3279 35.4487 30.0588 35.1796 29.7896L32.8916 26.2903V19.9647C32.8916 14.0428 28.9885 8.92845 23.605 7.17881C22.1245 6.50584 19.4328 6.50586 19.4328 6.50586C19.4328 6.50586 16.741 6.50587 15.2606 7.17881C9.87704 8.92845 5.97399 14.0428 5.97399 19.9647V26.2903L3.5514 29.9242C3.5514 29.9242 3.5514 30.0588 3.41681 30.0588V30.1933C3.28223 30.4625 3.28223 30.5971 3.28223 30.7317ZM19.4328 33.4235C18.4907 33.4235 17.5485 32.8851 17.1448 32.0776H21.7208C21.317 32.8851 20.3749 33.4235 19.4328 33.4235ZM8.39657 27.5016C8.53116 27.2324 8.66574 26.9632 8.66574 26.6941V19.9647C8.66574 14.0428 13.5109 9.19763 19.4328 9.19763C25.3546 9.19763 30.1998 14.0428 30.1998 19.9647V26.6941C30.1998 26.9632 30.3344 27.2324 30.469 27.5016L31.8149 29.3858H7.18528L8.39657 27.5016Z" fill="#0E3465"/>
<circle cx="28.5" cy="11.5" r="4.25" fill="#F64740"/>
</g>
</g>
</svg>
