<svg width="40" height="40" viewBox="0 0 40 40" fill="none" xmlns="http://www.w3.org/2000/svg">
<path d="M5 20.666C5 21.2183 5.44772 21.666 6 21.666H7.33333C7.88562 21.666 8.33333 21.2183 8.33333 20.666V19.3327C8.33333 18.7804 7.88562 18.3327 7.33333 18.3327H6C5.44771 18.3327 5 18.7804 5 19.3327V20.666ZM5 27.3327C5 27.885 5.44772 28.3327 6 28.3327H7.33333C7.88562 28.3327 8.33333 27.885 8.33333 27.3327V25.9993C8.33333 25.4471 7.88562 24.9993 7.33333 24.9993H6C5.44771 24.9993 5 25.4471 5 25.9993V27.3327ZM5 13.9993C5 14.5516 5.44772 14.9993 6 14.9993H7.33333C7.88562 14.9993 8.33333 14.5516 8.33333 13.9993V12.666C8.33333 12.1137 7.88562 11.666 7.33333 11.666H6C5.44771 11.666 5 12.1137 5 12.666V13.9993ZM11.6667 20.666C11.6667 21.2183 12.1144 21.666 12.6667 21.666H34C34.5523 21.666 35 21.2183 35 20.666V19.3327C35 18.7804 34.5523 18.3327 34 18.3327H12.6667C12.1144 18.3327 11.6667 18.7804 11.6667 19.3327V20.666ZM11.6667 27.3327C11.6667 27.885 12.1144 28.3327 12.6667 28.3327H34C34.5523 28.3327 35 27.885 35 27.3327V25.9993C35 25.4471 34.5523 24.9993 34 24.9993H12.6667C12.1144 24.9993 11.6667 25.4471 11.6667 25.9993V27.3327ZM12.6667 11.666C12.1144 11.666 11.6667 12.1137 11.6667 12.666V13.9993C11.6667 14.5516 12.1144 14.9993 12.6667 14.9993H34C34.5523 14.9993 35 14.5516 35 13.9993V12.666C35 12.1137 34.5523 11.666 34 11.666H12.6667Z" fill="#0E3465"/>
</svg>
