<svg width="40" height="40" viewBox="0 0 40 40" fill="none" xmlns="http://www.w3.org/2000/svg">
<mask id="mask0_6307_124327" style="mask-type:alpha" maskUnits="userSpaceOnUse" x="0" y="0" width="40" height="40">
<rect width="40" height="40" fill="#D9D9D9"/>
</mask>
<g mask="url(#mask0_6307_124327)">
<path d="M19.6475 33.6914C19.8305 33.6914 20.023 33.6501 20.2249 33.5675C20.4269 33.4849 20.5884 33.3794 20.7095 33.2512L34.2255 19.7181C34.613 19.3307 34.9093 18.9114 35.1144 18.4603C35.3195 18.0092 35.4221 17.5368 35.4221 17.0429C35.4221 16.5372 35.3195 16.0429 35.1144 15.56C34.9093 15.0771 34.613 14.6447 34.2255 14.263L27.3559 7.39334C26.9741 7.00587 26.5578 6.71758 26.1069 6.52847C25.6561 6.33939 25.1778 6.24485 24.6721 6.24485C24.1782 6.24485 23.7031 6.33939 23.2467 6.52847C22.7902 6.71758 22.3736 7.00587 21.9969 7.39334L20.9006 8.48955L24.125 11.7396C24.469 12.0892 24.7509 12.4974 24.9706 12.9639C25.1904 13.4304 25.3002 13.9244 25.3002 14.4457C25.3002 15.4101 24.953 16.2349 24.2586 16.9201C23.5641 17.6052 22.7383 17.9478 21.781 17.9478C21.2184 17.9478 20.72 17.862 20.2859 17.6903C19.8517 17.5187 19.4592 17.2595 19.1082 16.9127L15.9873 13.794L8.61973 21.1615C8.47087 21.3104 8.36029 21.478 8.28798 21.6644C8.2157 21.8508 8.17956 22.0406 8.17956 22.2337C8.17956 22.6058 8.30206 22.914 8.54706 23.1583C8.79209 23.4026 9.09743 23.5248 9.46306 23.5248C9.66368 23.5248 9.85924 23.4788 10.0498 23.387C10.2403 23.2951 10.3961 23.1886 10.5172 23.0675L16.0364 17.5483L17.5107 19.0226L12.0171 24.5141C11.8683 24.67 11.7577 24.842 11.6854 25.0301C11.6131 25.2181 11.577 25.4094 11.577 25.6038C11.577 25.9535 11.705 26.2564 11.9611 26.5125C12.2171 26.7685 12.52 26.8966 12.8697 26.8966C13.0642 26.8966 13.2567 26.8552 13.4472 26.7726C13.6377 26.69 13.7935 26.5846 13.9146 26.4564L19.6261 20.7534L21.1005 22.2277L15.4146 27.9115C15.2878 28.0397 15.1827 28.2032 15.0994 28.4021C15.0161 28.6009 14.9744 28.8006 14.9744 29.0012C14.9744 29.3509 15.1024 29.6538 15.3585 29.9099C15.6145 30.1659 15.9174 30.294 16.2671 30.294C16.4616 30.294 16.6471 30.2578 16.8238 30.1856C17.0005 30.1132 17.1632 30.0027 17.3121 29.8538L23.0236 24.1508L24.4979 25.6251L18.7864 31.3367C18.6375 31.4855 18.5269 31.6593 18.4546 31.8581C18.3823 32.0568 18.3462 32.2423 18.3462 32.4147C18.3462 32.7979 18.4708 33.1065 18.7201 33.3405C18.9694 33.5744 19.2785 33.6914 19.6475 33.6914ZM19.6407 35.7854C18.75 35.7854 17.9719 35.4602 17.3067 34.8099C16.6415 34.1597 16.2928 33.3484 16.2608 32.3761C15.3163 32.3213 14.5273 31.9905 13.8938 31.3837C13.2603 30.7768 12.9168 29.9763 12.8634 28.982C11.8762 28.9179 11.0781 28.5746 10.4691 27.9521C9.86013 27.3296 9.53429 26.5404 9.49156 25.5846C8.51865 25.5276 7.70776 25.1905 7.0589 24.5733C6.41004 23.9562 6.08561 23.1672 6.08561 22.2064C6.08561 21.7491 6.17547 21.2948 6.35519 20.8434C6.53491 20.392 6.78977 19.9981 7.11977 19.6616L15.9873 10.8026L20.4455 15.2609C20.6193 15.4404 20.8227 15.585 21.0558 15.6947C21.2888 15.8043 21.5334 15.8592 21.7896 15.8592C22.1528 15.8592 22.4812 15.7174 22.7746 15.434C23.0681 15.1505 23.2148 14.8186 23.2148 14.4382C23.2148 14.2324 23.1657 14.0264 23.0674 13.8202C22.9691 13.614 22.8302 13.4204 22.6507 13.2395L16.8046 7.39334C16.4228 7.00587 16.0038 6.71758 15.5476 6.52847C15.0914 6.33939 14.6105 6.24485 14.1048 6.24485C13.6109 6.24485 13.1411 6.33939 12.6954 6.52847C12.2496 6.71758 11.8336 7.00455 11.4472 7.38939L5.75115 13.0963C5.37648 13.4709 5.09531 13.8867 4.90765 14.3436C4.71998 14.8006 4.6183 15.299 4.60261 15.8389C4.57983 16.2897 4.64572 16.7301 4.80027 17.1599C4.95483 17.5898 5.15676 17.9838 5.40606 18.3421L3.86548 19.8719C3.45523 19.3406 3.12404 18.7149 2.8719 17.9948C2.61979 17.2748 2.49586 16.5422 2.50011 15.7972C2.50438 15.0002 2.65966 14.2386 2.96594 13.5125C3.27219 12.7863 3.7063 12.1423 4.26827 11.5803L9.92956 5.91901C10.5236 5.33071 11.1771 4.89179 11.8901 4.60226C12.6032 4.31273 13.3505 4.16797 14.1321 4.16797C14.9137 4.16797 15.6574 4.31273 16.3633 4.60226C17.0691 4.89179 17.7162 5.33071 18.3045 5.91901L19.4007 7.01522L20.4969 5.91901C21.0909 5.33071 21.7418 4.89179 22.4495 4.60226C23.1572 4.31273 23.9018 4.16797 24.6834 4.16797C25.465 4.16797 26.2114 4.31273 26.9226 4.60226C27.6338 4.89179 28.2835 5.33071 28.8718 5.91901L35.6998 12.747C36.2881 13.3353 36.7379 14.0057 37.0491 14.7581C37.3604 15.5104 37.516 16.2752 37.516 17.0524C37.516 17.8296 37.3604 18.5711 37.0491 19.2769C36.7379 19.9827 36.2881 20.6298 35.6998 21.2181L22.1838 34.7256C21.8348 35.0817 21.443 35.3473 21.0082 35.5226C20.5735 35.6978 20.1177 35.7854 19.6407 35.7854Z" fill="#0E3465"/>
</g>
</svg>
