<svg width="40" height="40" viewBox="0 0 40 40" fill="none" xmlns="http://www.w3.org/2000/svg">
<path fill-rule="evenodd" clip-rule="evenodd" d="M37.3736 10H40V12.5H37.3736C37.2124 13.2825 36.9017 14.0265 36.4586 14.6912L38.3211 16.5538L36.5536 18.3212L34.6911 16.4587C34.0264 16.9018 33.2824 17.2124 32.5 17.3736V20H30V17.3736C29.2175 17.2124 28.4735 16.9017 27.8088 16.4586L25.9463 18.3211L24.1788 16.5536L26.0413 14.6911C25.5982 14.0264 25.2876 13.2824 25.1264 12.5H22.5V10H25.1264C25.2876 9.21752 25.5983 8.47351 26.0414 7.80875L24.1789 5.94625L25.9464 4.17875L27.8089 6.04125C28.4736 5.59819 29.2176 5.28756 30 5.12637V2.5H32.5V5.12637C33.2825 5.28758 34.0265 5.59826 34.6912 6.04137L36.5537 4.17888L38.3213 5.94638L36.4587 7.80888C36.9018 8.4736 37.2124 9.21758 37.3736 10ZM29.1666 14.368C29.7833 14.7801 30.5083 15 31.25 15C32.2442 14.9989 33.1974 14.6035 33.9004 13.9004C34.6035 13.1974 34.9989 12.2442 35 11.25C35 10.5083 34.7801 9.7833 34.368 9.16661C33.956 8.54993 33.3703 8.06928 32.6851 7.78545C31.9998 7.50162 31.2458 7.42736 30.5184 7.57206C29.791 7.71675 29.1228 8.0739 28.5983 8.59835C28.0739 9.1228 27.7167 9.79098 27.5721 10.5184C27.4274 11.2458 27.5016 11.9998 27.7855 12.6851C28.0693 13.3703 28.5499 13.956 29.1666 14.368ZM35 23.75V35H5V10H20V7.5H5C4.33696 7.5 3.70107 7.76339 3.23223 8.23223C2.76339 8.70107 2.5 9.33696 2.5 10V35C2.5 35.663 2.76339 36.2989 3.23223 36.7678C3.70107 37.2366 4.33696 37.5 5 37.5H35C35.663 37.5 36.2989 37.2366 36.7678 36.7678C37.2366 36.2989 37.5 35.663 37.5 35V23.75H35ZM17.7779 22.9074C16.9556 23.4568 15.9889 23.75 15 23.75C13.6739 23.75 12.4021 23.2232 11.4645 22.2855C10.5268 21.3479 10 20.0761 10 18.75C10 17.7611 10.2932 16.7944 10.8427 15.9722C11.3921 15.1499 12.173 14.509 13.0866 14.1306C14.0002 13.7522 15.0055 13.6531 15.9755 13.8461C16.9454 14.039 17.8363 14.5152 18.5355 15.2145C19.2348 15.9137 19.711 16.8046 19.9039 17.7746C20.0969 18.7445 19.9978 19.7498 19.6194 20.6634C19.241 21.577 18.6001 22.3579 17.7779 22.9074ZM16.3889 16.6713C15.9778 16.3966 15.4945 16.25 15 16.25C14.337 16.25 13.7011 16.5134 13.2322 16.9822C12.7634 17.4511 12.5 18.087 12.5 18.75C12.5 19.2445 12.6466 19.7278 12.9213 20.1389C13.196 20.5501 13.5865 20.8705 14.0433 21.0597C14.5001 21.2489 15.0028 21.2984 15.4877 21.202C15.9727 21.1055 16.4181 20.8674 16.7678 20.5178C17.1174 20.1681 17.3555 19.7227 17.452 19.2377C17.5484 18.7528 17.4989 18.2501 17.3097 17.7933C17.1205 17.3365 16.8 16.946 16.3889 16.6713ZM8.59835 26.0983C9.30161 25.3951 10.2554 25 11.25 25H18.75C19.7446 25 20.6984 25.3951 21.4017 26.0983C22.1049 26.8016 22.5 27.7554 22.5 28.75V31.25H20V28.75C20 28.4185 19.8683 28.1005 19.6339 27.8661C19.3995 27.6317 19.0815 27.5 18.75 27.5H11.25C10.9185 27.5 10.6005 27.6317 10.3661 27.8661C10.1317 28.1005 10 28.4185 10 28.75V31.25H7.5V28.75C7.5 27.7554 7.89509 26.8016 8.59835 26.0983ZM25 23.75H32.5V26.25H25V23.75ZM32.5 31.25V28.75H27.5V31.25H32.5Z" fill="#0E3465"/>
</svg>
